<svg width="32" height="33" viewBox="0 0 32 33" fill="none" xmlns="http://www.w3.org/2000/svg">
<path d="M7.13422 26.5446C6.18542 26.5446 5.25792 26.2633 4.46901 25.7362C3.68011 25.209 3.06523 24.4598 2.70214 23.5832C2.33905 22.7066 2.24404 21.7421 2.42915 20.8115C2.61425 19.8809 3.07114 19.0261 3.74205 18.3552C4.41296 17.6843 5.26775 17.2274 6.19833 17.0423C7.1289 16.8572 8.09347 16.9522 8.97005 17.3153C9.84664 17.6784 10.5959 18.2933 11.123 19.0822C11.6501 19.8711 11.9315 20.7986 11.9315 21.7474C11.9315 23.0197 11.4261 24.2399 10.5264 25.1396C9.62674 26.0392 8.40654 26.5446 7.13422 26.5446ZM12.9389 25.905C13.5677 24.9908 13.9729 23.9417 14.122 22.8422C14.271 21.7427 14.1597 20.6236 13.797 19.575C13.4344 18.5264 12.8304 17.5777 12.0339 16.8052C11.2374 16.0328 10.2706 15.4583 9.21138 15.1279C8.15215 14.7976 7.03014 14.7206 5.93574 14.9033C4.84135 15.086 3.80517 15.5233 2.91069 16.1798C2.01622 16.8363 1.28847 17.6937 0.786075 18.683C0.283679 19.6723 0.0206896 20.7658 0.018296 21.8753C-0.00609866 22.232 -0.00609866 22.59 0.018296 22.9467C0.0508462 23.1841 0.0989216 23.4192 0.162214 23.6503L0.258159 23.9861C0.399451 24.4233 0.581479 24.8462 0.801848 25.2494C1.12531 25.8398 1.53491 26.3787 2.01715 26.8485L2.25702 27.0883L2.78471 27.5201C3.14871 27.794 3.53987 28.0297 3.95205 28.2237C5.09147 28.8083 6.36782 29.0739 7.64587 28.9922C8.92393 28.9106 10.1561 28.4848 11.2119 27.7599L15.8972 32.4453C15.9463 32.4951 16.0048 32.5346 16.0693 32.5616C16.1338 32.5886 16.2031 32.6025 16.273 32.6025C16.3429 32.6025 16.4122 32.5886 16.4767 32.5616C16.5412 32.5346 16.5997 32.4951 16.6488 32.4453L17.7042 31.4059C17.754 31.3568 17.7935 31.2983 17.8205 31.2337C17.8475 31.1692 17.8614 31.1 17.8614 31.0301C17.8614 30.9601 17.8475 30.8909 17.8205 30.8264C17.7935 30.7619 17.754 30.7034 17.7042 30.6543L12.9389 25.905Z" fill="#468585"/>
<path d="M15.69 23.8906C15.91 23.1048 16.0177 22.2919 16.0099 21.476C15.9636 19.139 14.994 16.9154 13.3129 15.2912C11.6319 13.6671 9.37619 12.7746 7.03899 12.8089C5.99137 12.8213 4.95337 13.0106 3.96875 13.3686V6.70042C3.96875 6.43747 4.0732 6.1853 4.25913 5.99937C4.44506 5.81344 4.69724 5.70898 4.96018 5.70898H30.8494C31.1138 5.70895 31.3677 5.81289 31.5561 5.99838C31.7446 6.18386 31.8526 6.43601 31.8568 6.70042V22.9631C31.8568 23.2303 31.7507 23.4865 31.5617 23.6755C31.3728 23.8644 31.1166 23.9705 30.8494 23.9705L15.69 23.8906Z" fill="#468585"/>
<path fill-rule="evenodd" clip-rule="evenodd" d="M21.7326 5.70888V3.34223H14.6326V5.70888H12.25V1.96702C12.2542 1.70261 12.3622 1.45046 12.5507 1.26498C12.7391 1.07949 12.993 0.975553 13.2574 0.975586H23.1078C23.238 0.975586 23.3669 1.00123 23.4872 1.05105C23.6075 1.10088 23.7168 1.17391 23.8088 1.26597C23.9009 1.35803 23.9739 1.46733 24.0238 1.58761C24.0736 1.7079 24.0992 1.83682 24.0992 1.96702V5.70888H21.7326Z" fill="#468585"/>
<path fill-rule="evenodd" clip-rule="evenodd" d="M21.7324 5.70958L24.0991 4.95801V5.70958H21.7324Z" fill="#468585"/>
<path fill-rule="evenodd" clip-rule="evenodd" d="M12.2344 5.70823L14.617 4.84473V5.70823H12.2344Z" fill="#468585"/>
</svg>
